<?xml version="1.0" encoding="UTF-8"?>
<svg width="32px" height="32px" viewBox="0 0 32 32" version="1.1" xmlns="http://www.w3.org/2000/svg" xmlns:xlink="http://www.w3.org/1999/xlink">
    <!-- Generator: Sketch 51.3 (57544) - http://www.bohemiancoding.com/sketch -->
    <title>ic-technology-google-glass</title>
    <desc>Created with Sketch.</desc>
    <defs></defs>
    <g id="Page-1" stroke="none" stroke-width="1" fill="none" fill-rule="evenodd">
        <g id="ic-technology-google-glass" fill="#252B33" fill-rule="nonzero">
            <path d="M28.5522198,-5.68434189e-14 C30.4533573,-5.68434189e-14 32,1.54663087 32,3.44799806 L32,28.5522461 C32,30.4533691 30.4533573,32 28.5522198,32 L20.0167543,32 C18.3924743,32 17.070931,30.6784668 17.070931,29.0541992 L17.070931,27.0456543 C17.070931,26.4553222 16.5904586,25.9748535 15.9998779,25.9748535 C15.4095414,25.9748535 14.929069,26.4553222 14.929069,27.0456543 L14.929069,29.0541992 C14.929069,30.6784668 13.6077698,32 11.9832457,32 L3.44778018,32 C1.54664267,32 5.5067062e-14,30.4533691 5.5067062e-14,28.5522461 L5.5067062e-14,24.9709472 L11.9832457,24.9709472 C12.5010719,24.9709472 12.9207529,24.5510254 12.9207529,24.0334472 L12.9207529,20.0168457 C12.9207529,19.4990234 12.5010719,19.0793457 11.9832457,19.0793457 L5.5067062e-14,19.0793457 L5.5067062e-14,3.44799806 C5.5067062e-14,1.54663087 1.54664267,-5.68434189e-14 3.44778018,-5.68434189e-14 C3.96560644,-5.68434189e-14 4.38528733,0.41967775 4.38528733,0.9375 C4.38528733,1.45532225 3.96560644,1.875 3.44778018,1.875 C2.58058606,1.875 1.8750143,2.58056637 1.8750143,3.44799806 L1.8750143,15.4438476 C2.34694172,15.2006836 2.88136961,15.0625 3.44778018,15.0625 L28.5522198,15.0625 C29.1186303,15.0625 29.6530582,15.2006836 30.1249857,15.4438476 L30.1249857,3.44799806 C30.1249857,2.58056637 29.4196581,1.875 28.5522198,1.875 C28.0343936,1.875 27.6147126,1.45532225 27.6147126,0.9375 C27.6147126,0.41967775 28.0343936,-5.68434189e-14 28.5522198,-5.68434189e-14 Z M11.0457386,20.9543457 L11.0457386,23.0959472 L4.26325641e-14,23.0959472 L4.26325641e-14,20.9543457 L11.0457386,20.9543457 Z M3.95046958,21.0874024 C3.7036415,21.0874024 3.46169635,21.1875 3.28737858,21.3625488 C3.11281675,21.5368652 3.01222998,21.7780762 3.01222998,22.0249024 C3.01222998,22.2719726 3.11281675,22.5136719 3.28737858,22.6882324 C3.46169635,22.8625488 3.7036415,22.9624024 3.95046958,22.9624024 C4.19680939,22.9624024 4.43851042,22.8625488 4.61282819,22.6882324 C4.78739002,22.5136719 4.88724428,22.2719726 4.88724428,22.0249024 C4.88724428,21.7780762 4.78739002,21.5368652 4.61282819,21.3625488 C4.43851042,21.1875 4.1965652,21.0874024 3.95046958,21.0874024 Z" id="Combined-Shape-Copy-18"></path>
        </g>
    </g>
</svg>