<?xml version="1.0" encoding="UTF-8"?>
<svg width="28px" height="32px" viewBox="0 0 28 32" version="1.1" xmlns="http://www.w3.org/2000/svg" xmlns:xlink="http://www.w3.org/1999/xlink">
    <!-- Generator: Sketch 51.3 (57544) - http://www.bohemiancoding.com/sketch -->
    <title>ic-technology-axure</title>
    <desc>Created with Sketch.</desc>
    <defs></defs>
    <g id="Page-1" stroke="none" stroke-width="1" fill="none" fill-rule="evenodd">
        <g id="ic-technology-axure" fill="#252B33" fill-rule="nonzero">
            <path d="M5.37501877,0.0373909884 C5.67443283,0.0401162791 6.36349533,0.0837209302 6.88849533,0.781395349 L17.1178287,14.9581395 L5.54449533,30.8837209 C5.24582866,31.4046512 4.68582866,31.7395349 4.051162,31.7395349 L1.54982866,31.7395349 C0.952495331,31.7395349 0.429828664,31.4418605 0.168495331,30.9581395 C-0.0928380025,30.4744186 -0.0555046691,29.8790698 0.317828664,29.3209302 L10.659162,14.9209302 L1.66182866,2.49302326 C1.28849533,1.93488372 1.251162,1.33953488 1.51249533,0.818604651 C1.77382866,0.334883721 2.259162,0.0372093023 2.89382866,0.0372093023 L5.37501877,0.0373909884 Z M20.291162,19.5348837 L27.5338287,29.4325581 C27.8324953,29.9906977 27.8324953,30.5860465 27.4964953,30.9953488 C27.1978287,31.4418605 26.7124953,31.7023256 26.115162,31.7023256 L23.6884953,31.7023256 C23.4644953,31.7023256 23.2404953,31.6651163 22.979162,31.5534884 L22.8298287,31.4790698 L17.1178287,23.8883721 L20.291162,19.5348837 Z M24.883162,1.20792265e-13 C25.5178287,1.20792265e-13 26.0404953,0.334883721 26.3018287,0.855813953 L26.3239042,0.909365916 C26.4384745,1.2002907 26.598162,1.83255814 26.003162,2.53023256 L20.3658287,10.5674419 L17.155162,6.17674419 L20.851162,0.818604651 C21.1124953,0.297674419 21.6724953,1.20792265e-13 22.3818287,1.20792265e-13 L24.883162,1.20792265e-13 Z" id="Combined-Shape"></path>
        </g>
    </g>
</svg>