<?xml version="1.0" encoding="UTF-8"?>
<svg width="32px" height="25px" viewBox="0 0 32 25" version="1.1" xmlns="http://www.w3.org/2000/svg" xmlns:xlink="http://www.w3.org/1999/xlink">
    <!-- Generator: Sketch 51.3 (57544) - http://www.bohemiancoding.com/sketch -->
    <title>ic-technology-cake-php</title>
    <desc>Created with Sketch.</desc>
    <defs></defs>
    <g id="Page-1" stroke="none" stroke-width="1" fill="none" fill-rule="evenodd">
        <g id="ic-technology-cake-php" fill="#252B33" fill-rule="nonzero">
            <path d="M0,15.0051706 L0,19.9974147 C0,22.7611169 7.16071285,25 15.9987098,25 L15.9987098,19.9974147 C7.16071285,19.9974147 0,17.7637022 0,15.0051706 Z M15.9987098,10.0025853 L28.5138295,13.1049638 C30.6917184,12.2518097 32,11.1659772 32,10.0025853 L32,5.00258532 C32,2.24146846 24.8367067,0 16.0012902,0 C7.16587372,0 0,2.23371251 0,5.00258532 L0,10.0025853 C0,12.7585315 7.16071285,15.0051706 15.9987098,15.0051706 L15.9987098,10.0025853 Z M28.5112491,18.1204757 L15.9987098,15.0051706 L15.9987098,19.9974147 L28.5138295,23.1127198 C30.689138,22.2673216 31.9974196,21.1840745 31.9974196,19.9974147 L31.9974196,15.0051706 C31.9974196,16.1814891 30.689138,17.2647363 28.5112491,18.1204757 Z" id="Shape-Copy-6"></path>
        </g>
    </g>
</svg>