<?xml version="1.0" encoding="UTF-8"?>
<svg width="25px" height="32px" viewBox="0 0 25 32" version="1.1" xmlns="http://www.w3.org/2000/svg" xmlns:xlink="http://www.w3.org/1999/xlink">
    <!-- Generator: Sketch 51.3 (57544) - http://www.bohemiancoding.com/sketch -->
    <title>ic-technology-android-watch</title>
    <desc>Created with Sketch.</desc>
    <defs></defs>
    <g id="Page-1" stroke="none" stroke-width="1" fill="none" fill-rule="evenodd">
        <g id="ic-technology-android-watch" fill="#252B33" fill-rule="nonzero">
            <path d="M25,13.3333333 L22.6125,13.3333333 C22.0836957,10.6554667 20.5788043,8.31946667 18.4782609,6.688 L18.4782609,0 L4.34782609,0 L4.34782609,6.688 C1.70434783,8.7408 0,11.9093333 0,15.4666667 C0,19.024 1.70434783,22.1925333 4.34782609,24.2453333 L4.34782609,32 L18.4782609,32 L18.4782609,24.2453333 C20.5793478,22.6133333 22.0836957,20.2778667 22.6125,17.6 L25,17.6 L25,13.3333333 Z M18.9228261,22.4 L3.90326087,22.4 C2.1625,20.5856 1.08695652,18.1493333 1.08695652,15.4666667 C1.08695652,9.87893333 5.71902174,5.33333333 11.4130435,5.33333333 C17.1070652,5.33333333 21.7391304,9.87893333 21.7391304,15.4666667 C21.7391304,18.1493333 20.663587,20.5856 18.9228261,22.4 Z" id="Shape-Copy-14"></path>
        </g>
    </g>
</svg>