<?xml version="1.0" encoding="UTF-8"?>
<svg width="32px" height="22px" viewBox="0 0 32 22" version="1.1" xmlns="http://www.w3.org/2000/svg" xmlns:xlink="http://www.w3.org/1999/xlink">
    <!-- Generator: Sketch 51.3 (57544) - http://www.bohemiancoding.com/sketch -->
    <title>ic-technology-laravel</title>
    <desc>Created with Sketch.</desc>
    <defs></defs>
    <g id="Page-1" stroke="none" stroke-width="1" fill="none" fill-rule="evenodd">
        <g id="ic-technology-laravel" fill="#252B33" fill-rule="nonzero">
            <path d="M31.871569,10.278894 C31.6594378,10.0402759 28.7306135,6.35731855 28.2144276,5.73236628 C27.6982418,5.10741402 27.4465128,5.2210417 27.1297303,5.26649278 C26.8115335,5.3133642 23.1063092,5.93831646 22.67639,6.01075411 C22.2464708,6.08319176 21.9749429,6.25647398 22.2393998,6.62860465 C22.4741583,6.95954528 24.9108383,10.4280304 25.4482372,11.1921765 L15.7623282,13.5229644 L8.05913842,0.587872854 C7.75225534,0.130521422 7.68861599,-0.0285573365 6.99141155,0.00411062286 C6.29420712,0.0367785822 0.948501728,0.481346899 0.568079836,0.514014859 C0.187657944,0.546682818 -0.230947557,0.715703999 0.150888542,1.61904409 C0.532724642,2.52238419 6.60250442,15.6591649 6.77079514,16.041238 C6.93908587,16.4233111 7.38031869,17.0440023 8.40986195,16.7954417 C9.46486095,16.5411998 13.1248307,15.5810459 15.1245205,15.0555178 C16.1809337,16.977246 18.3361863,20.8746756 18.7349929,21.434292 C19.266735,22.1799737 19.6330149,22.0564036 20.450427,21.807843 C21.0882347,21.6132556 30.429077,18.2399337 30.8505109,18.0666515 C31.2719449,17.8933693 31.5307449,17.7683788 31.2464891,17.3451157 C31.0371864,17.0340599 28.5736364,13.7189722 27.2824647,11.9847296 L31.6452957,10.8172052 C32.0356171,10.7106792 32.0893569,10.5189325 31.8772258,10.278894 L31.871569,10.278894 Z M14.2618537,13.8950951 C14.1458887,13.919241 8.72098766,15.224539 8.43107507,15.2898749 C8.14116248,15.3552108 8.14116248,15.3225429 8.1086357,15.2231187 C8.07610892,15.1236944 1.65843403,1.83351635 1.56933894,1.66733586 C1.48024385,1.50115537 1.48448647,1.36906319 1.56933894,1.36906319 C1.65419141,1.36906319 6.69301371,0.915972794 6.87120389,0.907450717 C7.04939407,0.898928641 7.03100937,0.935857638 7.09606293,1.04948532 L14.3283215,13.58688 C14.4527718,13.8027726 14.3778188,13.8695289 14.2618537,13.8936747 L14.2618537,13.8950951 Z M29.557925,16.7741366 C29.6441917,16.9104898 29.7304584,16.9971309 29.4589305,17.0965551 C29.1874026,17.1959793 20.2764794,20.2156351 20.1039461,20.2909134 C19.9314127,20.3661917 19.7942345,20.3903376 19.5722039,20.0664987 C19.3501733,19.7426598 16.4510474,14.7046923 16.4510474,14.7046923 L25.8951269,12.2361309 C26.1298854,12.1622729 26.2048384,12.1125608 26.3533302,12.3483382 C26.501822,12.5841157 29.4716584,16.636363 29.557925,16.7727162 L29.557925,16.7741366 Z M30.163206,10.0402759 C29.9510748,10.0871473 26.4834373,10.9507177 26.4834373,10.9507177 L23.6465365,7.04192535 C23.5673409,6.92971801 23.5008731,6.81609033 23.6988622,6.78910375 C23.8968513,6.76211718 27.1198308,6.1769346 27.2654942,6.14426664 C27.4111576,6.11159868 27.5370221,6.07182899 27.7152123,6.31754886 C27.8934025,6.56326873 30.347053,9.68092833 30.4389765,9.8002374 C30.5309,9.91954647 30.3725087,9.99340447 30.1603775,10.0388555 L30.163206,10.0402759 Z" id="Shape-Copy-7"></path>
        </g>
    </g>
</svg>