<?xml version="1.0" encoding="UTF-8"?>
<svg width="90px" height="30px" viewBox="0 0 90 30" version="1.1" xmlns="http://www.w3.org/2000/svg" xmlns:xlink="http://www.w3.org/1999/xlink">
    <!-- Generator: Sketch 61.2 (89653) - https://sketch.com -->
    <title>ic-technology-samsung-gear</title>
    <desc>Created with Sketch.</desc>
    <g id="Page-1" stroke="none" stroke-width="1" fill="none" fill-rule="evenodd">
        <g id="Brand-Logo" transform="translate(-1530.000000, -4845.000000)" fill="#252B33">
            <g id="ic-technology-samsung-gear" transform="translate(1530.000000, 4845.000000)">
                <path d="M11.2019395,13.1758917 C13.3054411,13.7647362 15.1639425,15.1975578 16.2229434,17.1048369 L13.4609412,18.7410685 C12.9639408,17.9801462 12.4659405,17.361959 11.89844,16.895459 C10.1699387,15.4745733 7.40193658,15.5402215 5.57593518,16.7477505 C4.36193424,17.5663637 3.48093357,18.8753489 3.22243337,20.3146359 C2.95993317,21.7350242 3.20393335,23.2702969 4.00643397,24.4862805 C4.87893464,25.8305766 6.37393579,26.7600954 7.97693702,26.9247132 C9.37343809,27.084855 10.8764392,26.7964008 11.9824401,25.8957274 C12.7809407,25.2641122 13.3019411,24.3430481 13.5524413,23.3687692 L8.2134372,23.3652878 L8.2174372,20.3872468 L16.9054439,20.3952042 C17.054444,21.9165514 16.8869439,23.5189643 16.3199434,24.9488019 C15.727943,26.4363304 14.7134422,27.7796318 13.3569412,28.6554384 C10.0274386,30.8347597 5.17843487,30.3165368 2.41343275,27.4513908 C-0.0855691715,24.9617326 -0.67006962,20.9024857 0.782431495,17.7329708 C1.60543213,15.8988 3.11893329,14.3789447 4.96993471,13.5687863 C6.9154362,12.7088943 9.16093793,12.6019673 11.2019395,13.1758917 Z M30.1904541,18.2054389 C31.6644552,19.771049 32.2014556,22.0339225 31.9234554,24.1272048 C28.3054526,24.1381461 24.6859498,24.1083061 21.0689471,24.1421248 C21.2894472,25.2661015 22.0229478,26.2761886 23.0574486,26.7924222 C24.5079497,27.500627 26.3854512,27.4588508 27.6929522,26.4587105 C28.2324526,26.071784 28.5889528,25.5023356 28.9294531,24.9458179 L31.401455,26.4054957 C30.8504546,27.5916392 29.8359538,28.5266287 28.7039529,29.165704 C27.1739518,29.9753651 25.3584504,30.157887 23.6674491,29.8599834 C21.9919478,29.5372131 20.4029466,28.6226143 19.4104458,27.2251035 C18.2404449,25.6415893 17.8429446,23.548307 18.2364449,21.6345626 C18.5764452,19.9282068 19.5759459,18.3441953 21.017447,17.3495257 C23.7344491,15.3930104 27.9079523,15.7272194 30.1904541,18.2054389 Z M42.2384633,16.6825997 C42.8614638,16.9700592 43.3664642,17.443522 43.8909646,17.8732192 C43.9024646,17.3729004 43.9089646,16.8720842 43.9089646,16.3707707 C44.9394654,16.3449093 45.9714662,16.35038 47.002967,16.3662947 C47.003967,20.8199281 47.007467,25.2735616 47.000967,29.7276923 C45.9694662,29.7276923 44.9369654,29.7336604 43.9059646,29.7252057 C43.9089646,29.1771427 43.9004646,28.6290797 43.8824646,28.0820114 C43.3674642,28.5529875 42.8489638,29.0383863 42.2204633,29.3566806 C40.6409621,30.1718123 38.7084606,30.1847431 37.0789594,29.5053837 C35.9004585,28.9936261 34.8434576,28.1804837 34.1279571,27.1097218 C32.9259562,25.3998846 32.680956,23.1688406 33.1309563,21.1650785 C33.4949566,19.6904807 34.3309573,18.3014245 35.5779582,17.4042325 C37.4419596,15.9913042 40.1179617,15.6506299 42.2384633,16.6825997 Z M82.9704946,13.0112739 C83.9769954,12.9993379 84.9954962,13.1286449 85.9334969,13.5071167 C87.0689977,13.9417874 88.0604985,14.7574165 88.653499,15.8192264 C89.3754995,17.122741 89.5504997,18.6918324 89.2494994,20.1405688 C88.9359992,21.6504773 87.9334984,22.9932814 86.5664974,23.7223742 L90,29.7431097 L86.3859972,29.7575324 L83.6324951,24.6285183 L80.854493,24.6315023 L80.858493,29.7431097 L77.7194906,29.7431097 L77.7184906,13.0187339 L82.9704946,13.0112739 Z M73.1634871,13.0132633 L76.3904896,13.0187339 L70.7114852,29.7431097 L67.6424828,29.7431097 L66.2224817,25.6435787 L61.9364785,13.027686 L65.214981,13.027686 L69.177984,24.9254272 L73.1634871,13.0132633 Z M51.9659708,16.369776 C51.9574708,16.9800059 51.9619708,17.5907331 51.9694708,18.2009629 C52.3914711,17.6051558 52.8544715,16.9800059 53.563472,16.7039851 C54.894473,16.1569167 56.4554742,16.2767744 57.7404752,16.8974483 L56.5834743,19.8287398 C55.6744736,19.3264316 54.5574728,19.1712632 53.566972,19.5154189 C52.8414715,19.7760223 52.3139711,20.4354883 52.1379709,21.1715439 C51.9314708,22.0085584 52.0049708,22.878397 51.9884708,23.7318236 C51.9899708,25.7256389 51.9874708,27.7184596 51.9909708,29.7127723 C50.95747,29.7411204 49.9239692,29.7232163 48.8904684,29.721227 C48.8634684,25.2685882 48.8724684,20.8149548 48.8859684,16.3613214 C49.9119692,16.3513747 50.93897,16.3483906 51.9659708,16.369776 Z M39.2769611,18.9713346 C37.6524598,19.2428794 36.3044588,20.6244755 36.0509586,22.2393218 C35.7544583,23.7959798 36.3764588,25.520737 37.7049598,26.4288704 C38.7964607,27.2111781 40.2939618,27.3807693 41.5369628,26.8714984 C42.4524635,26.5024759 43.2074641,25.7748751 43.6384644,24.8955871 C44.0809647,23.9262815 44.1659648,22.8013101 43.8834646,21.7753084 C43.5709643,20.7955587 42.9154638,19.8978694 41.9959631,19.4030212 C41.1784625,18.9424891 40.1984618,18.8121874 39.2769611,18.9713346 Z M80.851993,15.9465441 C80.855493,17.8881393 80.850993,19.8297345 80.856493,21.7723243 C81.9039938,21.7220935 82.9674946,21.8543846 84.0039954,21.651472 C84.9709961,21.4654688 85.8719968,20.764724 86.116997,19.788953 C86.3589972,18.8519742 86.3179972,17.7553509 85.6959967,16.9660805 C85.2094963,16.3260106 84.3919957,16.0524764 83.6184951,15.9709135 C82.6979944,15.8898479 81.7739937,15.9380894 80.851993,15.9465441 Z M23.6824491,19.0429508 C22.5244482,19.4258986 21.6159475,20.3832682 21.2204472,21.5221649 L28.817453,21.534101 C28.6869529,21.003942 28.4774528,20.4837298 28.1019525,20.0764126 C27.0514517,18.8295941 25.1814502,18.5356692 23.6824491,19.0429508 Z M5.33843499,-6.03961325e-14 C7.21193643,-6.03961325e-14 7.93443699,0.744510246 7.93443699,2.09974767 L7.93443699,2.39019121 L6.02393552,2.39019121 L6.02393552,2.00774072 C6.02393552,1.50941122 5.74593531,1.32539733 5.350435,1.32539733 C5.02543475,1.32539733 4.71443451,1.50742188 4.71443451,1.93214583 C4.71443451,2.71743753 6.30943574,3.04766786 7.14043638,3.79018877 C7.8239369,4.23580078 8.05993708,4.73562228 8.05993708,5.67260111 C8.05993708,7.0044638 7.23143299,7.81760625 5.38743503,7.81760625 C3.54293361,7.81760625 2.73143299,6.96368234 2.73143299,5.61739694 L2.73143299,5.11011541 L4.76193455,5.11011541 L4.76193455,5.73824931 C4.76193455,6.15053989 4.97693472,6.4205927 5.39043503,6.4205927 C5.75843532,6.4205927 6.08443557,6.16297326 6.08443557,5.79544282 C6.08443557,5.08823268 5.6129352,4.90421879 5.01243474,4.54961906 C4.5619344,4.29398895 3.79843381,3.95331459 3.35193347,3.50471857 C3.01293321,3.16354688 2.77093302,2.66919605 2.77093302,2.13903712 C2.77093302,0.73157954 3.69043373,-6.03961325e-14 5.33843499,-6.03961325e-14 Z M29.0274532,0.0437654654 C30.9004546,0.0437654654 31.6234552,0.856410583 31.6234552,2.1315771 L31.6234552,2.43097267 L29.6819537,2.43097267 L29.6819537,2.04006749 C29.6819537,1.54472199 29.4349535,1.36170277 29.0394532,1.36170277 C28.7139529,1.36170277 28.4034527,1.54273265 28.4034527,1.96496993 C28.4034527,2.74578562 29.9984539,3.07452394 30.8294546,3.81256883 C31.5024551,4.2974703 31.7174552,4.72169691 31.7174552,5.65370239 C31.7174552,6.97810505 30.9204546,7.81760625 29.0764532,7.81760625 C27.2319518,7.81760625 26.4519512,6.94776762 26.4519512,5.62983032 L26.4519512,5.08375667 L28.4509527,5.08375667 L28.4509527,5.74968801 C28.4509527,6.15998925 28.6659529,6.42855006 29.0794532,6.42855006 C29.4469535,6.42855006 29.7734538,6.17192528 29.7734538,5.80638418 C29.7734538,5.10315273 29.3019534,4.92063084 28.7014529,4.56802045 C28.2509526,4.31338501 27.518452,3.98514402 27.0724517,3.53903468 C26.7334514,3.19985232 26.4599512,2.69804147 26.4599512,2.17086655 C26.4599512,0.770868992 27.3269519,0.0437654654 29.0274532,0.0437654654 Z M35.278458,0.245186073 L35.278458,5.77505209 L35.278458,5.77505209 C35.278458,6.14059319 35.5789582,6.39721796 35.9464585,6.39721796 C36.3139588,6.39721796 36.614459,6.14059319 36.614459,5.77505209 L36.614459,0.245186073 L36.614459,0.245186073 L38.5424605,0.245186073 L38.5424605,5.59800089 L38.5424605,5.59800089 C38.5424605,7.01789184 37.7084598,7.77433812 35.9464585,7.77433812 C34.1719571,7.77433812 33.3499565,7.01838917 33.3499565,5.59800089 L33.3499565,0.245186073 L33.3499565,0.245186073 L35.278458,0.245186073 Z M51.1379702,0.0437654654 C52.9824716,0.0437654654 53.7484722,0.913604089 53.7484722,2.2315414 L53.7484722,2.63040393 L51.8639707,2.63040393 L51.8639707,2.11118637 C51.8639707,1.70088513 51.5629705,1.43282166 51.1494702,1.43282166 C50.7814699,1.43282166 50.4179696,1.68944643 50.4179696,2.0544902 L50.4179696,5.65022104 L50.4179696,5.65022104 C50.4179696,6.06052228 50.7184698,6.32858576 51.1324702,6.32858576 C51.4999704,6.32858576 51.8409707,6.07245832 51.8409707,5.70691721 L51.8409707,4.52773632 L51.1144701,4.52773632 L51.1144701,3.40823561 L53.7484722,3.40823561 L53.7484722,5.52986601 L53.7484722,5.52986601 C53.7484722,6.91544086 52.9304715,7.71764195 51.1439702,7.71764195 C49.2989687,7.71764195 48.5334682,6.84830066 48.5334682,5.52986601 L48.5334682,2.2315414 L48.5334682,2.2315414 C48.5334682,0.845966552 49.3514688,0.0437654654 51.1379702,0.0437654654 Z M43.2679641,0.245186073 L44.8999654,5.71835592 L44.8044653,0.245186073 L46.6984668,0.245186073 L46.7244668,7.55053744 L44.0419647,7.55053744 L42.2744634,1.79587608 L42.3639634,7.55053744 L40.472462,7.55053744 L40.484462,0.245186073 L43.2679641,0.245186073 Z M19.7519461,0.245186073 L20.6439467,5.77356008 L21.5359474,0.245186073 L24.5624498,0.245186073 L24.7104499,7.55053744 L22.8434484,7.55053744 L22.7889484,1.08070859 L21.5954475,7.55053744 L19.692446,7.55053744 L18.4984451,1.08070859 L18.4439451,7.55053744 L16.5769436,7.55053744 L16.7249437,0.245186073 L19.7519461,0.245186073 Z M13.8474415,0.245186073 L15.2004426,7.55053744 L13.165441,7.55053744 L12.1919403,1.06877256 L11.2184395,7.55053744 L9.18343795,7.55053744 L10.536439,0.245186073 L13.8474415,0.245186073 Z" id="Combined-Shape"></path>
            </g>
        </g>
    </g>
</svg>