<?xml version="1.0" encoding="UTF-8"?>
<svg width="30px" height="32px" viewBox="0 0 30 32" version="1.1" xmlns="http://www.w3.org/2000/svg" xmlns:xlink="http://www.w3.org/1999/xlink">
    <!-- Generator: Sketch 51.3 (57544) - http://www.bohemiancoding.com/sketch -->
    <title>ic-technology-angular-js</title>
    <desc>Created with Sketch.</desc>
    <defs></defs>
    <g id="Page-1" stroke="none" stroke-width="1" fill="none" fill-rule="evenodd">
        <g id="ic-technology-angular-js" fill="#252B33" fill-rule="nonzero">
            <path d="M12.1901021,16 L18.0642421,16 L14.9417128,9.42535014 L12.1901021,16 Z M14.9520581,0 L0,5.29844063 L2.3625246,25.0239146 L14.9679546,32 L27.6382324,24.9296535 L30,5.20468765 L14.9520581,0 Z M10.9738927,18.7948042 L9.14074722,23.412837 L5.71391323,23.4270651 L14.9510488,2.82707149 L14.933386,2.7881983 L14.9172372,2.7881983 L14.9174895,2.75440658 L14.933386,2.7881983 L14.968964,2.7881983 L15,2.71858227 L15,2.7881983 L14.9687116,2.7881983 L14.9513012,2.82707149 L24.5873635,23.5129418 L21.2884586,23.4400229 L19.2592561,18.7193445 L14.9260686,18.7401785 L10.9738927,18.7948042 Z" id="Shape-Copy-11"></path>
        </g>
    </g>
</svg>