<?xml version="1.0" encoding="UTF-8"?>
<svg width="32px" height="31px" viewBox="0 0 32 31" version="1.1" xmlns="http://www.w3.org/2000/svg" xmlns:xlink="http://www.w3.org/1999/xlink">
    <!-- Generator: Sketch 51.3 (57544) - http://www.bohemiancoding.com/sketch -->
    <title>ic-technology-adobe-xd</title>
    <desc>Created with Sketch.</desc>
    <defs></defs>
    <g id="Page-1" stroke="none" stroke-width="1" fill="none" fill-rule="evenodd">
        <g id="ic-technology-adobe-xd" fill="#252B33" fill-rule="nonzero">
            <path d="M32,0 L32,31 L0,31 L0,0 L32,0 Z M26.3854545,6.60560748 L24.0436364,6.60560748 C23.9709091,6.60560748 23.8981818,6.6635514 23.8981818,6.75046729 L23.8981818,10.5168224 C23.6072727,10.4878505 23.4472727,10.4878505 23.1418182,10.4878505 C19.5636364,10.4878505 17.3818182,13.1242991 17.3818182,16.4995327 C17.3818182,20.4397196 19.6363636,22.3808411 22.7927273,22.3808411 C24.0145455,22.3808411 25.2945455,22.1200935 26.5163636,21.5406542 C26.6036364,21.4971963 26.6036364,21.4827103 26.6036364,21.3813084 C26.5309091,20.8453271 26.5309091,20.3528037 26.5309091,19.9616822 L26.5309091,6.72149533 C26.5309091,6.64906542 26.5018182,6.60560748 26.3854545,6.60560748 Z M7.89818182,6.5911215 L5.39636364,6.5911215 C5.29454545,6.5911215 5.20727273,6.69252336 5.29454545,6.80841121 L9.14909091,14.3990654 L5.16363636,22.0331776 C5.09090909,22.1200935 5.10545455,22.2359813 5.25090909,22.2359813 L7.66545455,22.2359813 C7.78181818,22.2359813 7.85454545,22.1925234 7.92727273,22.0766355 C8.85818182,20.164486 9.81818182,18.0495327 10.6909091,16.1084112 L10.72,16.1084112 C11.6945455,18.1654206 12.64,20.15 13.5709091,22.0621495 C13.6436364,22.2070093 13.7163636,22.2504673 13.8763636,22.2504673 L16.4072727,22.2504673 C16.5236364,22.2504673 16.5672727,22.1345794 16.4945455,22.0186916 L12.4218182,14.1528037 L16.2618182,6.80841121 C16.3345455,6.67803738 16.2909091,6.5911215 16.1745455,6.5911215 L13.8327273,6.5911215 C13.6872727,6.5911215 13.6436364,6.6635514 13.5709091,6.77943925 C12.6836364,8.6771028 11.7527273,10.6037383 10.9090909,12.5158879 L10.88,12.5158879 C10.0072727,10.5747664 9.07636364,8.6771028 8.16,6.75046729 C8.11636364,6.62009346 8.04363636,6.5911215 7.89818182,6.5911215 Z M23.0545455,12.6462617 C23.4036364,12.6462617 23.68,12.6897196 23.8981818,12.7911215 L23.8836364,12.7911215 L23.8836364,19.9616822 C23.6072727,20.0775701 23.2290909,20.121028 22.88,20.121028 C21.2509091,20.121028 20,19.0490654 20,16.3836449 C20,14.0514019 21.2218182,12.6462617 23.0545455,12.6462617 Z" id="Combined-Shape-Copy-4"></path>
        </g>
    </g>
</svg>