<?xml version="1.0" encoding="UTF-8"?>
<svg width="27px" height="36px" viewBox="0 0 27 36" version="1.1" xmlns="http://www.w3.org/2000/svg" xmlns:xlink="http://www.w3.org/1999/xlink">
    <!-- Generator: Sketch 51.3 (57544) - http://www.bohemiancoding.com/sketch -->
    <title>ic-technology-java</title>
    <desc>Created with Sketch.</desc>
    <defs></defs>
    <g id="Page-1" stroke="none" stroke-width="1" fill="none" fill-rule="evenodd">
        <g id="ic-technology-java" fill="#252B33" fill-rule="nonzero">
            <path d="M26.7275849,32.543424 C26.4903913,35.606592 16.4672946,36.250848 9.94200424,35.836992 C5.65335908,35.563392 4.81868166,34.877952 4.81868166,34.877664 C8.89277844,35.54496 15.7641333,35.666208 21.3342623,34.625952 C26.2714881,33.70464 26.7275849,32.543424 26.7275849,32.543424 Z M5.80664941,30.61296 C5.80664941,30.61296 5.35258489,30.581856 4.55739134,30.75264 C3.79471392,30.915936 1.37052037,31.689792 2.66274618,32.247936 C6.25926231,33.799968 19.2088107,33.429024 23.3029397,32.198688 C25.4562623,31.550976 24.4317139,30.712896 24.4317139,30.712896 C28.182972,32.392224 16.2809075,35.765568 1.81674618,33.43968 C-3.48744737,32.58576 4.36868166,29.608704 5.80664941,30.61296 Z M8.60739134,27.801504 C8.60739134,27.801504 7.2234236,28.600416 9.59361715,28.869984 C12.4654881,29.195424 13.9330688,29.148768 17.0970042,28.555488 C17.0970042,28.555488 17.9305204,29.072448 19.0923913,29.520576 C11.9971978,32.535936 3.03523005,29.34576 8.60739134,27.801504 Z M7.73990747,23.865984 C7.73990747,23.865984 6.18726231,25.006176 8.55948812,25.249824 C11.6273268,25.564032 14.0494881,25.589664 18.2429075,24.789024 C18.2429075,24.789024 18.8215204,25.372224 19.732843,25.690752 C11.1561333,28.179072 1.60335908,25.886592 7.73990747,23.865984 Z M20.9530688,26.516448 C20.9530688,26.515872 21.0572946,26.422272 21.0889397,26.338752 C27.8885849,22.834656 24.7443913,19.467072 22.549843,19.920672 C22.0133268,20.031552 21.7726494,20.128032 21.7726494,20.128032 C21.7726494,20.128032 21.9723913,19.81728 22.3532946,19.683648 C26.6944881,18.170208 30.0326171,24.148512 20.9530688,26.516448 Z M9.27368166,19.787616 L9.19734739,19.8060144 C8.4751923,19.9821921 2.9596318,21.3757491 6.94152037,21.90384 C8.7380365,22.142304 12.3177139,22.087584 15.6543913,21.809952 C18.3805204,21.58272 21.1162301,21.09744 21.1162301,21.09744 C21.1162301,21.09744 20.155843,21.506112 19.4602301,21.976704 C12.7706171,23.722272 -0.149318336,22.909248 3.57058489,21.1248 C6.71535908,19.615968 9.27368166,19.787616 9.27368166,19.787616 Z M21.5293591,7.343136 C13.6261978,11.89008 15.0859397,13.208256 16.9901655,15.862176 C19.0282301,18.709344 14.5894881,20.981952 14.5894881,20.981952 C14.5894881,20.981952 16.7973913,19.186272 15.0481978,17.188992 C9.12358489,10.416096 21.5293591,7.343424 21.5293591,7.343136 Z M16.9901655,1.42108547e-14 C16.9901655,1.42108547e-14 20.7550688,3.737088 13.4183268,9.481824 C7.53464941,14.091552 12.0767462,16.719264 13.4162946,19.722816 C9.98148812,16.648992 7.46206876,13.942656 9.1520365,11.424096 C11.6337139,7.727904 18.508843,5.935104 16.9901655,1.42108547e-14 Z" id="Combined-Shape"></path>
        </g>
    </g>
</svg>