<?xml version="1.0" encoding="UTF-8"?>
<svg width="32px" height="28px" viewBox="0 0 32 28" version="1.1" xmlns="http://www.w3.org/2000/svg" xmlns:xlink="http://www.w3.org/1999/xlink">
    <!-- Generator: Sketch 51.3 (57544) - http://www.bohemiancoding.com/sketch -->
    <title>ic-technology-htc-vive</title>
    <desc>Created with Sketch.</desc>
    <defs></defs>
    <g id="Page-1" stroke="none" stroke-width="1" fill="none" fill-rule="evenodd">
        <g id="ic-technology-htc-vive" fill="#252B33" fill-rule="nonzero">
            <path d="M21.6532724,23.331499 C19.8684855,23.8896225 17.9692313,24.1901361 15.9978702,24.1901361 C14.0293331,24.1901361 12.1306437,23.889809 10.34661,23.3328048 C8.25871055,22.6806659 6.96963506,20.5826666 7.41884408,18.4598576 C8.23611832,14.5975763 10.2628304,11.1755261 13.0887429,8.60017455 C14.7366585,7.098539 17.2596467,7.09816593 18.9081271,8.59942839 C21.7344162,11.1736608 23.7622579,14.5958975 24.5797204,18.4581787 C25.0291177,20.5809877 23.7407952,22.6784275 21.6532724,23.331499 Z M19.865285,1.03211795 C19.4930778,0.393596397 18.8049559,0 18.0605416,0 L13.9372698,0 C13.1928555,0 12.5047336,0.393596397 12.1323382,1.03230448 L0.27932009,21.367994 C-0.0930753125,22.0068886 -0.0930753125,22.7940814 0.279131821,23.4331626 L2.33822612,26.9673224 C2.71043325,27.6062171 3.39836692,28 4.14315773,28 L27.8550302,28 C28.5992562,28 29.2873781,27.6065901 29.6595853,26.9678821 L31.7205622,23.4333491 C32.0931459,22.7944545 32.0931459,22.0067021 31.7205622,21.3676209 L19.865285,1.03211795 Z" id="Fill-1-Copy"></path>
        </g>
    </g>
</svg>