<?xml version="1.0" encoding="UTF-8"?>
<svg width="36px" height="22px" viewBox="0 0 36 22" version="1.1" xmlns="http://www.w3.org/2000/svg" xmlns:xlink="http://www.w3.org/1999/xlink">
    <!-- Generator: Sketch 51.3 (57544) - http://www.bohemiancoding.com/sketch -->
    <title>ic-technology-oculas</title>
    <desc>Created with Sketch.</desc>
    <defs></defs>
    <g id="Page-1" stroke="none" stroke-width="1" fill="none" fill-rule="evenodd">
        <g id="ic-technology-oculas" fill="#252B33" fill-rule="nonzero">
            <path d="M11.1068735,0.0134548073 C15.3603691,-0.0137341121 19.6144128,0.0101255519 23.8687306,0.00180241329 C25.2995341,-0.0120694844 26.7459583,0.0905825584 28.126885,0.492312715 C31.0961928,1.32018757 33.6596357,3.50806327 34.9657474,6.33321395 C36.2713111,9.08928258 36.3458521,12.4113246 35.1608695,15.2237132 C34.0298743,17.985608 31.7155407,20.2175963 28.9408069,21.2371808 C27.3787346,21.8328401 25.6914224,22.0095681 24.031789,21.9995803 C19.907918,21.9979157 15.7832248,22.0029096 11.6593538,21.9970834 C9.87201418,21.9912572 8.0534331,21.7265814 6.4159976,20.9716727 C4.12139552,19.9537528 2.20114272,18.0918667 1.10549968,15.810217 C-0.104969369,13.355446 -0.327770215,10.4281981 0.468612639,7.80835155 C1.10303325,5.72590227 2.3570759,3.83238824 4.0501431,2.48348491 C5.41709344,1.35847401 7.07014966,0.612443349 8.79253997,0.264258717 C9.55905161,0.14052139 10.3293999,0.0226102598 11.1068735,0.0134548073 Z M8.79774688,8.045561 C8.11509385,8.51026957 7.61495665,9.22855643 7.3864008,10.0259131 C7.14057994,10.9575498 7.24773262,11.9937805 7.7511584,12.8211005 C8.35022685,13.8664867 9.48588086,14.5192982 10.6620939,14.6272216 L25.4168265,14.6197307 C26.2526723,14.5029294 27.0893401,14.1716684 27.6845719,13.5488202 C28.2203353,13.0275143 28.5834486,12.3258737 28.6916975,11.5806754 C28.9054548,10.3968477 28.4554683,9.12313001 27.5631687,8.33187696 C26.7919983,7.61164804 25.7158126,7.32949364 24.6864892,7.33115827 C20.2619877,7.33115827 15.8372123,7.32949364 11.4127108,7.33199058 C10.5015019,7.3211705 9.55411875,7.5053893 8.79774688,8.045561 Z" id="Fill-1-Copy-2"></path>
        </g>
    </g>
</svg>