<?xml version="1.0" encoding="UTF-8"?>
<svg width="28px" height="32px" viewBox="0 0 28 32" version="1.1" xmlns="http://www.w3.org/2000/svg" xmlns:xlink="http://www.w3.org/1999/xlink">
    <!-- Generator: Sketch 51.3 (57544) - http://www.bohemiancoding.com/sketch -->
    <title>spotify-plus</title>
    <desc>Created with Sketch.</desc>
    <defs></defs>
    <g id="Page-1" stroke="none" stroke-width="1" fill="none" fill-rule="evenodd">
        <g id="spotify-plus" fill="#252B33" fill-rule="nonzero">
            <path d="M20.5646667,4.66333333 L21.6833333,5.77866667 C21.6833333,5.77866667 24.13,5.96133333 24.2453333,5.97066667 C24.3870253,5.98279133 24.502096,6.09015389 24.524,6.23066667 C24.546,6.392 28,29.8613333 28,29.8613333 L19.5246667,31.7033333 L20.5646667,4.66333333 Z M19.2646667,3.774 C19.210555,3.78097684 19.1570627,3.79212107 19.1046667,3.80733333 L18.1526667,4.102 C17.5846667,2.46 16.5826667,0.951333333 14.8206667,0.951333333 C14.772,0.951333333 14.7206667,0.952666667 14.6713333,0.956 C14.1693333,0.29 13.5486667,0 13.0126667,0 C8.906,0 6.94333333,5.16 6.32866667,7.78133333 C4.73266667,8.278 3.59933333,8.63066667 3.45533333,8.67666667 C2.56333333,8.958 2.53533333,8.986 2.41866667,9.82933333 C2.33066667,10.468 0,28.5806667 0,28.5806667 L18.16,32 L18.1793333,31.996 L19.2646667,3.774 Z M14.5366667,5.048 L14.536,5.22733333 L11.3613333,6.21466667 C11.9726667,3.84533333 13.118,2.7 14.12,2.268 C14.3713333,2.904 14.5366667,3.81666667 14.5366667,5.048 Z M12.8986667,1.10666667 C13.0773333,1.10666667 13.2553333,1.168 13.4266667,1.286 C12.11,1.908 10.7,3.476 10.104,6.606 L7.59533333,7.38733333 C8.29266667,4.99933333 9.94933333,1.10733333 12.8986667,1.10733333 L12.8986667,1.10666667 Z M13.6066667,15.062 C13.6066667,15.062 12.544,14.492 11.2413333,14.492 C9.33066667,14.492 9.23466667,15.6966667 9.23466667,16 C9.23466667,17.6573333 13.5306667,18.292 13.5306667,22.172 C13.5306667,25.224 11.604,27.19 9.006,27.19 C5.88866667,27.19 4.29466667,25.24 4.29466667,25.24 L5.12933333,22.4686667 C5.12933333,22.4686667 6.76866667,23.8826667 8.15133333,23.8826667 C9.054,23.8826667 9.422,23.168 9.422,22.646 C9.422,20.4846667 5.89666667,20.388 5.89666667,16.8366667 C5.89666667,13.8493333 8.03133333,10.9566667 12.34,10.9566667 C14,10.9566667 14.82,11.4353333 14.82,11.4353333 L13.6066667,15.062 Z M15.6126667,4.892 L15.6133333,4.55866667 C15.6133333,3.53866667 15.472,2.71733333 15.2466667,2.066 C16.1546667,2.18 16.76,3.21933333 17.1486667,4.414 L15.6126667,4.892 Z" id="Shopify-Copy"></path>
        </g>
    </g>
</svg>