<?xml version="1.0" encoding="UTF-8"?>
<svg width="27px" height="32px" viewBox="0 0 27 32" version="1.1" xmlns="http://www.w3.org/2000/svg" xmlns:xlink="http://www.w3.org/1999/xlink">
    <!-- Generator: Sketch 51.3 (57544) - http://www.bohemiancoding.com/sketch -->
    <title>ic-technology-code-igniter</title>
    <desc>Created with Sketch.</desc>
    <defs></defs>
    <g id="Page-1" stroke="none" stroke-width="1" fill="none" fill-rule="evenodd">
        <g id="ic-technology-code-igniter" fill="#252B33" fill-rule="nonzero">
            <path d="M20.2278295,12.0917874 L20.0294621,11.9848581 C20.1338798,12.2338432 20.1679006,12.446152 20.1642368,12.6359902 C20.201398,12.4823116 20.2259976,12.3237257 20.229138,12.158941 C20.2314933,12.3637596 20.2063702,12.5561806 20.1576943,12.7351709 L20.1642368,12.6357319 C20.1069248,12.873869 20.0111432,13.0944429 19.8831727,13.2964204 L19.9446719,13.2318496 C19.1909806,14.4765164 17.1348165,14.7484886 16.1207353,13.463013 C14.4929715,11.3993301 16.1542327,9.17447839 16.3868826,6.98914403 C16.6776295,4.25030873 14.937597,1.59128294 12.779894,0 C13.9682663,1.89734856 12.4025249,4.4078615 11.1497749,5.81085597 C9.93497105,7.17175027 8.45794547,8.30767989 7.11700304,9.54330683 C5.67687693,10.8716575 4.29144578,12.2694863 3.10804577,13.8277089 C0.73993725,16.9462206 -0.710133398,20.8685096 0.35550235,24.7595464 C1.4200913,28.6482586 4.832638,31.1233867 8.68640814,31.9984503 C6.74225098,31.1688446 4.92292394,29.0609952 4.91873676,26.9043303 C4.91376449,24.5524032 6.42350237,22.5561322 8.30171154,21.2443117 C8.07586585,22.0860567 7.95260592,22.855999 8.51185533,23.6088946 C9.03211169,24.3091004 9.942822,24.6490012 10.8025011,24.4643287 C12.8120829,24.0306711 12.903939,21.8505024 11.7129497,20.5802655 C10.5350454,19.3229428 9.39561072,17.9016102 9.84363832,16.0776141 C10.0681755,15.1632915 10.6371078,14.3073409 11.3580868,13.6946931 C10.8038096,15.1315227 12.3779253,16.5484644 13.4147742,17.2535776 C15.2142122,18.4780984 17.1874179,19.4037855 18.8418749,20.8388071 C20.5816457,22.3471811 21.8668464,24.3865854 21.6072416,26.7524597 C21.3256541,29.3164373 19.2613774,31.099883 16.946132,32 C21.8388446,30.9338069 26.8953805,27.185859 26.9982279,21.8298398 C27.0843267,17.4240446 24.0219324,14.0330441 20.2278295,12.0917874 Z" id="Path-Copy"></path>
        </g>
    </g>
</svg>