<?xml version="1.0" encoding="UTF-8"?>
<svg width="31px" height="32px" viewBox="0 0 31 32" version="1.1" xmlns="http://www.w3.org/2000/svg" xmlns:xlink="http://www.w3.org/1999/xlink">
    <!-- Generator: Sketch 51.3 (57544) - http://www.bohemiancoding.com/sketch -->
    <title>ic-technology-unity-3d</title>
    <desc>Created with Sketch.</desc>
    <defs></defs>
    <g id="Page-1" stroke="none" stroke-width="1" fill="none" fill-rule="evenodd">
        <g id="ic-technology-unity-3d" fill="#252B33" fill-rule="nonzero">
            <path d="M20.2118144,16.0009758 L25.7725101,6.33100809 L28.4594731,16.0009758 L25.7723889,25.668626 L20.2118144,16.0009758 Z M17.5015961,17.5713469 L23.0630184,27.2397289 L13.3774034,24.7408458 L6.38020481,17.5713469 L17.5015961,17.5713469 Z M23.0618072,4.75941724 L17.5015961,14.429385 L6.38020481,14.429385 L13.3774034,7.25939818 L23.0618072,4.75941724 Z M31,12.7100763 L27.6076244,0 L14.9455656,3.40629265 L13.0712078,6.72500362 L9.26786642,6.69755811 L0,16.0018297 L9.26786642,25.3039056 L9.26822979,25.3039056 L13.0699966,25.2756063 L14.947019,28.5943173 L27.6076244,32 L31,19.2923633 L29.0733177,16.0010978 L31,12.7103203 L31,12.7100763 Z" id="Shape-Copy-12"></path>
        </g>
    </g>
</svg>