<?xml version="1.0" encoding="UTF-8"?>
<svg width="40px" height="19px" viewBox="0 0 40 19" version="1.1" xmlns="http://www.w3.org/2000/svg" xmlns:xlink="http://www.w3.org/1999/xlink">
    <!-- Generator: Sketch 51.3 (57544) - http://www.bohemiancoding.com/sketch -->
    <title>ic-technology-zend</title>
    <desc>Created with Sketch.</desc>
    <defs></defs>
    <g id="Page-1" stroke="none" stroke-width="1" fill="none" fill-rule="evenodd">
        <g id="ic-technology-zend" fill="#252B33" fill-rule="nonzero">
            <path d="M16.659443,14.8671538 C14.0084999,14.8763924 11.3575569,14.9123912 8.7066138,14.9123912 L8.32506058,14.9123912 C11.9882287,9.81522691 15.6002873,4.9901238 19.2377399,0.0487416331 C19.1143057,0.040777314 19.0551601,0.0136986289 18.9953716,0.0136986289 C13.2572869,0.0130614834 7.51952361,0.00414144595 1.78143889,0 C1.57989392,0 1.51078361,0.0465116238 1.51239083,0.257088222 C1.52235557,1.43230315 1.51753392,2.60528808 1.51753392,3.78050301 C1.51753392,4.11564156 1.51785536,4.11500441 1.8601925,4.11500441 C4.76411146,4.11500441 7.66803043,4.11436727 10.5719494,4.11532299 C10.6860618,4.11532299 10.800817,4.13029591 10.9760036,4.14303882 C7.29869205,9.11532254 3.66091799,14.034086 0,18.9843883 L0.1877229,18.9945826 C5.69919009,18.9949012 11.2103358,18.9936269 16.721803,19 C16.9471348,19.0003169 16.977029,18.9104794 16.9760647,18.7241143 C16.9702787,17.5316964 16.9664214,16.3587115 16.9789577,15.1662937 C16.9812078,14.918444 16.9124189,14.8661981 16.659443,14.8671538 Z M39.6860353,0.25230963 C34.4876539,0.252628203 29.2892725,0.245619602 24.0905697,0.262185386 C23.5142218,0.26377825 22.9227661,0.338005704 22.3644191,0.480089158 C20.3582913,0.990761301 18.7526819,3.14877322 18.8314355,5.21248759 C18.8397931,5.43899283 18.973192,5.35520819 19.1107698,5.35520819 L27.0915646,5.35520819 C28.4348762,5.35520819 29.7778664,5.41286986 31.121178,5.40490554 C32.5853524,5.3959855 34.0524197,5.45460289 35.5124152,5.36858825 C37.0241632,5.27970645 38.2315043,4.58553639 39.0650068,3.30519244 C39.6249611,2.44440883 39.8731153,1.48837196 39.9959067,0.484549177 C40.0293368,0.209939453 39.8519001,0.25230963 39.6860353,0.25230963 Z M31.7550643,6.98502646 C29.1224435,6.98407074 26.4898227,6.98247788 23.8572019,6.98598218 C23.0089129,6.9869379 22.1921255,7.1506843 21.4450912,7.55622743 C19.7080115,8.49983996 19.0403737,10.0796423 18.8352929,11.9280015 C18.8086131,12.1720282 18.9574413,12.1653382 19.1261991,12.1650196 C20.5122627,12.1627896 21.8980048,12.1637453 23.2843899,12.1637453 C23.7549829,12.1640639 24.2258974,12.1704354 24.6964904,12.162471 C25.7325022,12.1452681 26.7743,12.1844526 27.8016329,12.0837836 C29.1378727,11.9525316 30.2240297,11.3074217 30.996458,10.1987885 C31.6036645,9.32717343 31.9074284,8.34724361 32.0131833,7.29882063 C32.0440418,6.99139791 32.0562567,6.98502646 31.7550643,6.98502646 Z M26.4805008,13.688116 C25.6791426,13.6932132 24.8771415,13.6804703 24.0757833,13.694806 C23.7038734,13.7014961 23.3290705,13.7327162 22.9613393,13.7900593 C20.0821715,14.2347869 19.0075865,16.6228083 18.8356143,18.6600812 C18.8198636,18.8423048 18.8860809,18.9028336 19.0699465,18.8990107 C19.548897,18.889135 20.028169,18.8955064 20.5077625,18.8955064 L20.5090482,18.9216294 C21.1602924,18.8932764 21.8182869,18.9101608 22.4627807,18.827969 C24.8835704,18.5189534 26.731548,16.3545701 26.7132258,13.9021969 C26.7109757,13.7193362 26.6392938,13.6871603 26.4805008,13.688116 Z" id="Shape-Copy-5"></path>
        </g>
    </g>
</svg>