<?xml version="1.0" encoding="UTF-8"?>
<svg width="40px" height="16px" viewBox="0 0 40 16" version="1.1" xmlns="http://www.w3.org/2000/svg" xmlns:xlink="http://www.w3.org/1999/xlink">
    <!-- Generator: Sketch 61.2 (89653) - https://sketch.com -->
    <title>ic-technology-microsoft-dot-net</title>
    <desc>Created with Sketch.</desc>
    <g id="Page-1" stroke="none" stroke-width="1" fill="none" fill-rule="evenodd">
        <g id="Brand-Logo" transform="translate(-849.000000, -4688.000000)" fill="#252B33" fill-rule="nonzero">
            <g id="ic-technology-microsoft-dot-net" transform="translate(849.000000, 4688.000000)">
                <path d="M39.855935,-8.52651283e-14 C34.4494309,9.50336 31.1817886,15.21792 27.9411382,15.21792 C27.7678049,15.21792 27.6068293,15.18944 27.4523577,15.13344 L27.4523577,15.13344 L27.5177236,15.11936 L27.538,15.114 L27.5154472,15.11968 L27.4910569,15.1248 L27.4839024,15.1248 L27.4494309,15.13216 C27.0097561,14.97312 26.64,14.59808 26.3222764,14.06432 L26.3242276,14.06816 C26.6396748,14.61024 27.0087805,14.98496 27.4500813,15.14368 L27.445,15.141 L27.4536585,15.1392 C27.6081301,15.1952 27.7691057,15.22368 27.942439,15.22368 L26.7105691,15.2288 L26.7099187,15.22304 L20.024065,15.22336 C20.2903545,15.22304 20.5593573,15.2016802 20.8293766,15.1589607 L20.667016,15.1819496 C20.4514182,15.2090667 20.2366396,15.22272 20.0237398,15.22272 C15.8234146,15.22272 15.2793496,7.51264 13.8429268,3.1904 L13.8429268,3.1904 L13.5062371,3.52784593 C12.607841,4.44935111 11.7050768,5.54986667 10.8,6.80512 C11.3118699,5.22208 11.7356098,4.00896 12.1502439,3.0864 L12.1438005,3.10219393 C12.1427984,3.10313407 12.1417964,3.10407442 12.1407943,3.105015 C11.7287063,4.02560135 11.3080831,5.23153384 10.7990244,6.80352 C10.3817886,8.09184 9.90471545,9.62912 9.32422764,11.45344 C8.5603252,13.86048 7.0204878,15.51968 3.65268293,15.61248 L3.878,15.602 L3.86243902,15.60448 L3.8504065,15.60448 L3.79902439,15.6096 L3.79121951,15.6096 L3.66926829,15.6176 L3.10894309,15.6176 L1.88780488,15.62272 L1.7099187,15.62272 C1.87674797,14.35936 2.11609756,13.15488 2.41170732,12.01824 C5.7395122,5.70816 7.31609756,1.71456 10.099187,0.63392 L10.099187,0.63392 L10.116748,0.6256 L10.1691057,0.6064 L10.1925203,0.5968 L10.2487805,0.5776 L10.3726829,0.53472 L10.3921951,0.5296 L10.4452033,0.51392 L10.4695935,0.5072 L10.5235772,0.49152 L10.544065,0.48576 L10.7226016,0.44032 L10.7466667,0.43456 L10.7977236,0.42464 L10.824065,0.4176 L10.876748,0.40736 L10.8891057,0.40736 L10.9973984,0.3888 L11.0188618,0.38368 L11.0689431,0.37504 L11.0969106,0.37024 L11.133,0.365 L11.121,0.364 L11.0972358,0.368 L11.0689431,0.3728 L11.0188618,0.38144 L10.9973984,0.38144 L10.8891057,0.40128 L10.876748,0.40128 L10.8243902,0.41088 L10.7990244,0.41856 L10.7469919,0.42848 L10.7226016,0.43392 L10.5443902,0.47936 L10.5239024,0.4848 L10.4702439,0.50048 L10.4458537,0.50816 L10.3925203,0.52384 L10.3739837,0.52864 L10.2494309,0.57152 L10.2465041,0.57152 L10.1765854,0.5968 L10.1661789,0.60192 L10.1138211,0.62176 L10.1095935,0.62176 L10.095935,0.63168 C9.11744272,1.00719273 8.09703605,1.7397605 7.11414844,2.7840361 L7.31160485,2.58022876 C8.23333736,1.64446876 9.18310421,0.98272 10.0962602,0.63104 C7.31284553,1.712 5.73626016,5.7056 2.40845528,12.01568 C2.66082779,11.0434182 2.95484025,10.1203426 3.28241202,9.25096058 L3.14386069,9.62626557 C2.87143183,10.3845937 2.62449372,11.1819055 2.40813008,12.01536 C1.81268293,13.14496 1.16162602,14.34848 0.436747967,15.62048 L0.436747967,15.62048 L-6.32383035e-13,15.62048 C2.26471545,6.99136 7.29300813,0.32832 10.9427642,0.32832 C11.0604878,0.32832 11.1756098,0.33536 11.2878049,0.3456 L11.2878049,0.3456 L11.217,0.351 L11.289,0.351 L11.2884553,0.34816 L11.3,0.351 L11.362,0.351 L11.4255285,0.3474 L11.4255285,0.3474 L11.5603252,0.344 C11.6355206,0.344 11.7097529,0.346224185 11.783043,0.350619509 L15.9449002,0.35113216 L15.9449002,0.35113216 L15.9449002,0.35274752 L17.309183,0.349908184 C17.4560867,0.337242838 17.6022744,0.33088 17.7473171,0.33088 L17.7473171,0.33088 L19.4100813,0.33664 C19.2086721,0.33664 19.0059621,0.348871111 18.8030111,0.373807407 L18.4982114,0.4208 C18.3109518,0.454733659 18.1240094,0.498548504 17.9369019,0.552185236 L18.1702379,0.490725926 L18.1702379,0.490725926 L18.4988618,0.42048 L18.4988618,0.42048 L18.802698,0.374305185 C19.005673,0.349653333 19.2084553,0.33728 19.4100813,0.33728 C23.6396748,0.33728 24.1622764,8.15808 25.6217886,12.45984 C25.2699187,12.79104 24.9186992,13.0944 24.5681301,13.36864 L24.7153808,13.2519171 C25.0173598,13.0088588 25.319821,12.7443474 25.6227642,12.4592 L25.6227642,12.4592 L25.622,12.461 C25.6260332,12.4553724 25.6267005,12.4547448 25.6273679,12.454117 C26.3788203,10.77907 27.159527,8.15073896 28.4481301,4.09696 C29.1847154,1.77408 30.6494309,0.20544 33.7830894,0.0208 L33.777,0.02 L33.7798374,0.01664 L34.0952846,0.0016 L36.0858537,0.0016 L36.0842276,0.00256 L37.3365854,0.00256 C32.8526829,7.88416 31.4104065,13.16032 28.5534959,14.73088 L28.567,14.722 L28.573,14.719 L28.568503,14.7237639 L28.6851949,14.6636878 L28.6851949,14.6636878 L28.573,14.719 L28.7190192,14.6355451 C31.4147035,12.9890253 32.8820117,7.93545043 37.0825428,0.453427674 L37.3378862,0.0016 L37.7333333,0.0016 L37.7330081,-8.52651283e-14 Z M2.40845528,12.016 C2.11252033,13.1536 1.87447154,14.35776 1.70634146,15.62112 L1.70634146,15.62112 L0.436747967,15.62112 C1.16195122,14.34912 1.81300813,13.1456 2.40845528,12.016 L2.40845528,12.016 Z" id="Combined-Shape"></path>
            </g>
        </g>
    </g>
</svg>