<?xml version="1.0" encoding="UTF-8"?>
<svg width="42px" height="19px" viewBox="0 0 42 19" version="1.1" xmlns="http://www.w3.org/2000/svg" xmlns:xlink="http://www.w3.org/1999/xlink">
    <!-- Generator: Sketch 51.3 (57544) - http://www.bohemiancoding.com/sketch -->
    <title>ic-technology-microsoft-hololense</title>
    <desc>Created with Sketch.</desc>
    <defs></defs>
    <g id="Page-1" stroke="none" stroke-width="1" fill="none" fill-rule="evenodd">
        <g id="ic-technology-microsoft-hololense" fill="#252B33" fill-rule="nonzero">
            <path d="M19.7435383,13.8769466 C20.3604986,14.4198288 20.6154409,15.2759646 20.6052432,16.0850679 C20.6205398,16.8888991 20.3706963,17.7241025 19.7894279,18.282697 C19.2489503,18.8151392 18.4738747,19.0239401 17.7396919,18.99784 C17.010557,18.99784 16.250829,18.7315667 15.7613398,18.1573643 C15.2055656,17.5362339 15.0627979,16.643558 15.1341308,15.8292347 C15.190269,15.0723315 15.5114453,14.3154284 16.1080613,13.8404064 C16.5312655,13.501105 17.0666443,13.3287921 17.5969242,13.2870842 C18.3464036,13.2192239 19.1622189,13.3549444 19.7435383,13.8769466 Z M11.5191001,13.8978267 C12.1258118,14.4354889 12.3757062,15.2811324 12.3604097,16.0850157 C12.380754,16.8784068 12.1361114,17.7136103 11.5598909,18.2669848 C11.0296109,18.804647 10.2596852,19.0186157 9.53055026,18.9977878 C8.78606779,19.0030078 8.01109423,18.7367867 7.51135635,18.1469243 C6.94033662,17.4996416 6.81286547,16.5652055 6.9046447,15.7248342 C6.97597755,14.9940312 7.30740252,14.2736682 7.88362308,13.8247464 C8.31197711,13.4853928 8.85240377,13.3236243 9.38273472,13.2870842 C10.1322141,13.2244439 10.9480294,13.3653845 11.5191001,13.8978267 Z M40.5213347,13.4853928 C40.5264336,13.8977745 40.5264336,14.3102084 40.5213347,14.7173701 C40.1032804,14.4459289 39.6035425,14.2527882 39.0987568,14.3154284 C38.8897041,14.3415285 38.660256,14.4354889 38.5685278,14.6442898 C38.4717007,14.884463 38.5583301,15.187172 38.7724816,15.3228926 C39.1192031,15.5525735 39.522012,15.662194 39.88403,15.8605548 C40.1695654,16.0171554 40.4551007,16.2207363 40.6233626,16.5130575 C40.8579095,16.9254392 40.8732061,17.4526614 40.7151928,17.8963632 C40.5163379,18.4079775 40.0369954,18.7472789 39.5322096,18.8881673 C38.8693597,19.0708681 38.16577,19.0134478 37.5130667,18.809867 C37.4264373,18.773379 37.3295083,18.7576668 37.2581244,18.6950787 C37.2530256,18.277477 37.2428279,17.8598753 37.2683221,17.4422735 C37.7475626,17.7711349 38.3187353,18.0112037 38.9051026,17.9590035 C39.0886611,17.9433434 39.287516,17.9120755 39.4251339,17.7710827 C39.6035935,17.5570096 39.5577039,17.2073204 39.3588489,17.0246196 C39.1650928,16.8471389 38.9152493,16.7427384 38.6756545,16.633118 C38.2829924,16.4712451 37.8853335,16.2833765 37.5946483,15.964903 C37.2683731,15.5995015 37.2020881,15.0671115 37.2887175,14.6024774 C37.3855446,14.1170676 37.7424638,13.725566 38.1707668,13.5114929 C38.8999018,13.1460914 39.7718044,13.2140039 40.5213347,13.4853928 Z M29.1560076,13.3601645 C29.7526235,13.490665 30.2726548,13.9134867 30.5326959,14.4720291 C30.8488753,15.1036517 30.8437765,15.8344547 30.8131324,16.5234975 C29.5996581,16.5182775 28.3911807,16.5287698 27.1777064,16.5182775 C27.2032006,16.9149992 27.3204231,17.3378209 27.621255,17.6092098 C27.9577788,17.9067511 28.4217738,18.0059837 28.8551757,17.9903236 C29.4007522,17.9903236 29.9310831,17.7919106 30.3848294,17.4891493 C30.3899792,17.8441108 30.4001259,18.1938522 30.3848294,18.5435937 C29.7984621,18.9142152 29.0794739,19.0029556 28.4014294,18.9977356 C27.7028365,18.9924634 26.9737526,18.7367345 26.5250031,18.1677521 C25.969229,17.4995894 25.8621532,16.5652055 25.9539834,15.7196142 C26.0406128,14.8844108 26.4893622,14.0856953 27.1878531,13.6419934 C27.7691215,13.2713719 28.4982565,13.2140039 29.1560076,13.3601645 Z M1.30101322,11.2564958 C1.28566569,12.3057201 1.30611206,13.3548922 1.29076454,14.4041688 C1.41823568,14.4407089 1.55085666,14.4249967 1.6783278,14.4249967 L4.27873914,14.4249967 C4.42655467,14.4302689 4.57447219,14.4354367 4.72233872,14.4093366 C4.71723987,13.3548922 4.71214103,12.2952279 4.72743756,11.2407835 C5.15574061,11.2460557 5.58409464,11.2460557 6.01234669,11.2407835 C6.02764323,13.782934 6.01749653,16.3199167 6.01749653,18.862015 C5.58409464,18.8672872 5.15069275,18.8672872 4.72238971,18.862015 C4.70704218,17.7710827 4.73768624,16.680046 4.70704218,15.5942815 C3.57005057,15.5995015 2.43805582,15.5942815 1.30106421,15.5995015 C1.29591437,16.680046 1.29081553,17.7605905 1.30106421,18.8411871 C0.872761164,18.8933873 0.434260429,18.8568472 0.000858540257,18.862015 C0.00590639755,16.3199167 -0.00429129395,13.7829862 0.00590639755,11.2407835 C0.439308286,11.2564958 0.872710175,11.2199556 1.30101322,11.2564958 Z M35.0299288,13.3236243 C35.4734774,13.4019246 35.8763372,13.6942458 36.0853389,14.1066275 C36.3708743,14.6495098 36.3759731,15.2811324 36.3708743,15.8762149 C36.3657754,16.873239 36.3708743,17.8650431 36.3657754,18.862015 C35.9477211,18.8672872 35.5295647,18.8672872 35.1114594,18.862015 C35.1012617,18.0425238 35.1114594,17.2177082 35.1063605,16.398217 C35.0961119,15.8448425 35.1674957,15.2498123 34.892158,14.748638 C34.6525633,14.3310363 34.1018369,14.2580082 33.6888304,14.3988966 C33.1636493,14.5868695 32.8526197,15.1662397 32.8577186,15.7196142 C32.8628684,16.7583463 32.8475209,17.8023506 32.8628684,18.8411871 C32.4447121,18.8881151 32.0215589,18.8568472 31.5983037,18.862015 C31.5932048,17.0454475 31.5932048,15.2237122 31.5983037,13.4070925 C32.016409,13.4018724 32.4345144,13.4018724 32.8526197,13.4070925 C32.8628684,13.6367734 32.8577696,13.8665066 32.8526197,14.1014075 C33.0158848,13.976127 33.1178617,13.7934263 33.2911715,13.6785858 C33.7807116,13.3079642 34.4384118,13.2192239 35.0299288,13.3236243 Z M14.3744537,10.8075217 L14.3744537,18.862015 C13.9512495,18.862015 13.5279943,18.8777273 13.10994,18.8516272 C13.1150388,16.1737039 13.10994,13.495885 13.10994,10.8127939 C13.5331442,10.7970817 13.9512495,10.8075217 14.3744537,10.8075217 Z M21.4669992,11.2407835 C21.900401,11.2460557 22.3338029,11.2407835 22.762055,11.2460557 C22.7569051,13.4019246 22.7672048,15.5630136 22.7569051,17.7241025 C23.720587,17.7554748 24.6843198,17.7241025 25.6480017,17.7397626 C25.6480017,18.1156041 25.6531005,18.4862779 25.6480017,18.8620672 C24.2509179,18.8673394 22.8588821,18.8620672 21.4617983,18.8620672 C21.4618493,16.3199167 21.4566995,13.7829862 21.4669992,11.2407835 Z M17.5560825,14.3937287 C17.0665933,14.4720291 16.6740332,14.8791907 16.5414632,15.3542127 C16.3986955,15.8814349 16.3884978,16.4504172 16.5414632,16.9724194 C16.6689343,17.3952411 17.0055091,17.7658105 17.4337612,17.8650431 C17.9079538,17.9851036 18.4738747,17.9433434 18.8410936,17.5779419 C19.192863,17.2177604 19.2846422,16.6800982 19.289741,16.1894162 C19.2948909,15.6830741 19.2184082,15.1193117 18.8563391,14.738198 C18.5248632,14.3885087 18.0048319,14.3102084 17.5560825,14.3937287 Z M9.29595237,14.3937287 C8.8319574,14.4772491 8.45979265,14.8530906 8.31702497,15.3020125 C8.15896075,15.8135746 8.15386191,16.3721169 8.27618322,16.8888469 C8.38840881,17.3378209 8.71983379,17.7449304 9.16848122,17.8598231 C9.6580214,17.9903236 10.2443887,17.9433434 10.6165534,17.5622818 C10.9683738,17.1864403 11.0499553,16.638338 11.0499553,16.1372159 C11.0499553,15.6360417 10.9633259,15.0879394 10.6012569,14.7278101 C10.2647331,14.3780687 9.74470178,14.3102084 9.29595237,14.3937287 Z M27.784418,14.5190093 C27.4581429,14.7642981 27.2693836,15.1715119 27.2082485,15.5734014 C27.9985696,15.5786736 28.7888907,15.5786736 29.5792118,15.5734014 C29.5893585,15.1715119 29.4823337,14.7278101 29.1509087,14.4771969 C28.7531987,14.1900957 28.1719813,14.2161958 27.784418,14.5190093 Z M15.5420384,2.87836111 C15.5420384,3.29069062 15.5624338,3.70829235 15.5369396,4.11545403 C15.2718506,3.94319332 14.9914141,3.7709326 14.6803335,3.70829235 C14.1704489,3.60389191 13.5993782,3.71873239 13.2118659,4.08935392 C12.8855908,4.39216737 12.7173289,4.83586921 12.6918346,5.27957104 C12.6510439,5.79113316 12.7376732,6.36006331 13.0895446,6.75156493 C13.4260684,7.13784653 13.9665461,7.28400713 14.4611341,7.23707914 C14.8536942,7.18487892 15.2157633,6.99173812 15.5471882,6.7672772 C15.5420384,7.17443888 15.5573859,7.57638054 15.5369906,7.97827 C14.8690418,8.32284363 14.0838195,8.39587173 13.3546846,8.24971113 C12.5643635,8.08789046 11.8811691,7.49808022 11.5752384,6.73590487 C11.3304428,6.10955448 11.325344,5.41007158 11.457914,4.75756888 C11.6465712,3.90665317 12.2074443,3.11848211 13.0181098,2.80528081 C13.8237784,2.49207952 14.761966,2.49729954 15.5420384,2.87836111 Z M24.2968585,3.21244249 C24.90872,3.76054476 25.1585125,4.62184832 25.1381681,5.43622389 C25.1534136,6.24532724 24.8883246,7.09619076 24.281511,7.64429302 C23.6288588,8.26025557 22.6753746,8.40119615 21.8239184,8.28113566 C21.1304243,8.19239529 20.4727242,7.80606149 20.0903108,7.20575901 C19.6569089,6.53759625 19.5956718,5.68673273 19.7027475,4.90372949 C19.7995746,4.17814649 20.1718413,3.4786636 20.7735051,3.06628189 C21.1151278,2.8261609 21.5179876,2.69044034 21.9258953,2.6330201 C22.7417106,2.51817962 23.6595028,2.62774788 24.2968585,3.21244249 Z M28.9928955,2.80011299 C29.0132909,3.20727467 28.9979943,3.61960418 29.0030422,4.03203808 C28.6155299,3.80235713 28.1872269,3.60921634 27.7283307,3.6248764 C27.4937838,3.63009642 27.2337937,3.68751666 27.0858762,3.8910975 C26.9227641,4.13643852 27.0195912,4.51750009 27.2796833,4.6636607 C27.7691215,4.96636975 28.3605876,5.08643024 28.8041872,5.48315189 C29.4466928,6.01559409 29.4568395,7.12223866 28.87552,7.70693328 C28.5440951,8.05145471 28.0750523,8.23415546 27.6059584,8.2915235 C26.9788004,8.37509604 26.3363968,8.26542339 25.7448797,8.04096246 C25.7193855,7.61814071 25.7295832,7.19531897 25.7397299,6.77249722 C26.3108516,7.13789873 27.0093425,7.42499992 27.68754,7.22141907 C27.9373324,7.16399884 28.0648036,6.87689765 27.9985696,6.63682886 C27.9322336,6.32884758 27.6314527,6.18268698 27.3765104,6.05735426 C26.927812,5.8485534 26.4332239,5.67629268 26.0865024,5.30045113 C25.7448797,4.93504962 25.6734959,4.38172733 25.770374,3.90670537 C25.8926953,3.32206295 26.3873853,2.89402118 26.9227641,2.71654044 C27.5957608,2.49207952 28.3300455,2.57037984 28.9928955,2.80011299 Z M34.2497545,3.0453496 C34.8310229,3.45773131 35.1777444,4.14682636 35.2644248,4.85669709 C35.3715005,5.70756061 35.2644248,6.63677666 34.729046,7.3257673 C34.3160395,7.88430961 33.6633872,8.21317097 32.9954384,8.2914713 C32.2102162,8.38548389 31.3587089,8.26537119 30.7315509,7.74336903 C30.1860254,7.30493942 29.8851425,6.60540433 29.834154,5.90597363 C29.7627702,5.08643024 29.900439,4.19902657 30.4256201,3.54652388 C30.8233811,3.02974174 31.4402905,2.71654044 32.0725983,2.6330201 C32.8119309,2.53383969 33.6225964,2.60164777 34.2497545,3.0453496 Z M38.9763845,0.0908695863 C38.991681,0.461491119 38.9763845,0.832112652 38.9865822,1.20273418 C38.7316399,1.10360597 38.4563022,1.02530565 38.1860634,1.09311373 C37.9311211,1.14004172 37.7271673,1.34367477 37.6506846,1.5942358 C37.53851,1.95441729 37.604846,2.34069889 37.5843996,2.71654044 C38.2115576,2.72698049 38.8336168,2.72176047 39.4607748,2.72176047 C39.4659247,2.30937876 39.4505771,1.89694485 39.4659247,1.48461535 C39.8890779,1.3749427 40.3020844,1.21834205 40.7252886,1.1087738 C40.7201897,1.64643602 40.7201897,2.18409824 40.7252886,2.72176047 C41.1485437,2.72698049 41.5767958,2.71648824 42,2.72698049 C41.9949012,3.07150191 41.9949012,3.42124336 42,3.76576478 C41.5819456,3.79708491 41.1637893,3.76576478 40.7456839,3.78142485 L40.7252886,3.80752496 C40.7201897,4.64794843 40.7252886,5.48315189 40.7252886,6.32357536 C40.7303874,6.61067655 40.7507828,6.96036579 41.0108239,7.13267871 C41.3167547,7.3257673 41.7043179,7.24229916 42,7.06476623 C41.9949012,7.42494771 42,7.7851814 41.9949012,8.14014287 C41.536005,8.32284363 41.0159228,8.36977162 40.5315324,8.26537119 C40.1593167,8.18185085 39.8125442,7.93650983 39.6494321,7.57638054 C39.4442036,7.16530384 39.457588,6.70223165 39.460725,6.253712 L39.4607748,6.06257428 C39.455625,5.30039893 39.4709725,4.53832798 39.455625,3.77615263 C38.8336168,3.78659267 38.2115576,3.77615263 37.5894474,3.78142485 C37.5843486,5.18555845 37.5843486,6.58979646 37.5894474,7.99398227 C37.5843486,8.06184255 37.5793007,8.12448281 37.5741509,8.18707087 C37.1509467,8.18185085 36.7328414,8.18185085 36.3096372,8.18707087 C36.2942896,6.71507698 36.3197839,5.24303089 36.2942896,3.77615263 C36.0037064,3.78142485 35.7079224,3.78142485 35.4173391,3.77615263 C35.4122403,3.42646338 35.4122403,3.07144971 35.4173391,2.72176047 L36.3045383,2.72176047 C36.3197839,2.25195852 36.2586487,1.76644432 36.4013654,1.31235464 C36.579927,0.691172069 37.1101559,0.200437839 37.7271673,0.0595494568 C38.1402248,-0.0291909102 38.5736266,-0.018750867 38.9763845,0.0908695863 Z M8.05703483,0.56583935 C8.06213367,2.18931826 8.05703483,3.81269278 8.05703483,5.43617169 C8.04678615,6.35489549 8.07737922,7.27356709 8.04678615,8.18712307 C7.62363294,8.17668302 7.2054766,8.19234309 6.78742223,8.18185085 L6.76192801,8.15575074 C6.75682916,6.1878026 6.75682916,4.21463444 6.76192801,2.2466863 C6.73133493,2.28322645 6.7058407,2.3197666 6.69054417,2.35635895 C5.95631038,4.25639461 5.22207659,6.15126245 4.49294165,8.04618248 C4.46234857,8.09311048 4.45724973,8.19751091 4.38076704,8.18190305 C4.11052822,8.18712307 3.84538824,8.18190305 3.57514941,8.18712307 C2.80012486,6.24005502 2.03014816,4.28781914 1.26027344,2.34069889 L1.19913828,2.31459878 L1.19913828,8.18190305 C0.801377323,8.18712307 0.403667355,8.17668302 0.00600837446,8.18712307 C-0.00944112816,5.65019258 0.0110052433,3.10804206 0.000858540257,0.571111572 C0.622866733,0.560671529 1.24492591,0.550231486 1.86703608,0.576331594 C2.56547598,2.46075939 3.29466191,4.33996716 3.99830262,6.22439495 C4.24304722,5.70239279 4.43170451,5.15429053 4.65095488,4.62706834 C5.19143253,3.26986273 5.73706001,1.92304496 6.27243881,0.56583935 C6.86390492,0.555451507 7.46041889,0.560619329 8.05703483,0.56583935 Z M19.5956208,2.71132042 C19.5905219,3.13414217 19.6007706,3.56218394 19.5905219,3.99022571 C19.3151843,3.85972517 19.0143524,3.7709848 18.7135715,3.81274498 C18.3158615,3.86494519 17.9946342,4.19375435 17.8671631,4.57486813 C17.704,5.06549796 17.7549885,5.59799236 17.7448418,6.10950228 C17.7396919,6.80376515 17.7600873,7.49808022 17.7345931,8.18707087 C17.3215866,8.1714108 16.9035322,8.19751091 16.4853759,8.1714108 C16.4956245,6.35484329 16.480277,4.53827578 16.4956245,2.72176047 L17.7448418,2.72176047 C17.7499406,3.00358943 17.7396919,3.2855228 17.7499406,3.56735176 C17.8926573,3.30635068 18.0456227,3.03496176 18.300565,2.86792107 C18.6727807,2.61214001 19.1725186,2.5599398 19.5956208,2.71132042 Z M9.27560797,2.72176047 C9.69881217,2.72698049 10.1169175,2.71648824 10.5401217,2.72698049 C10.5350229,4.543548 10.5401217,6.36533553 10.5350229,8.18190305 C10.1169175,8.18712307 9.69881217,8.17668302 9.28580566,8.18712307 C9.26541028,6.36533553 9.28075781,4.543548 9.27560797,2.72176047 Z M21.9920783,3.73444465 C21.6606533,3.82318502 21.3802168,4.05291817 21.2171047,4.35562722 C20.9876567,4.76795673 20.9519647,5.26385878 20.977459,5.7284929 C21.0029532,6.15653467 21.1355742,6.61067655 21.4566995,6.90821778 C21.7983731,7.2266913 22.2929102,7.28933155 22.7365608,7.22141907 C23.0731356,7.16399884 23.389213,6.96041799 23.5676726,6.65248892 C23.8124682,6.22961497 23.8430103,5.71288504 23.8226149,5.23264305 C23.7971207,4.79416124 23.6798472,4.32957931 23.3535721,4.02159804 C22.9966529,3.67702442 22.4509744,3.61955198 21.9920783,3.73444465 Z M32.1387813,3.73966468 C31.8685935,3.81269278 31.6340466,3.97978567 31.4708325,4.20946662 C31.1852972,4.60096824 31.1190122,5.11769817 31.1343087,5.59277234 C31.1444554,6.04169419 31.2464323,6.51666396 31.5523631,6.84557752 C31.8379494,7.15877881 32.2764502,7.26839927 32.6843578,7.24229916 C33.0565226,7.23185912 33.438936,7.07003845 33.6632852,6.75161713 C33.9590693,6.32879538 33.999809,5.78069312 33.9845635,5.27962324 C33.9641681,4.82020914 33.8468437,4.32957931 33.505272,4.0111058 C33.1382061,3.67175219 32.5976774,3.61955198 32.1387813,3.73966468 Z M10.6777906,1.05657358 C10.7491234,1.49505539 10.3616621,1.89699706 9.93845792,1.88655701 C9.54074795,1.92304496 9.13284029,1.57857574 9.14813683,1.15575399 C9.12779243,0.837332673 9.35209066,0.545011464 9.63767701,0.440611033 C10.0761777,0.263130299 10.6370508,0.560671529 10.6777906,1.05657358 Z" id="Combined-Shape-Copy-15"></path>
        </g>
    </g>
</svg>