<?xml version="1.0" encoding="UTF-8"?>
<svg width="28px" height="32px" viewBox="0 0 28 32" version="1.1" xmlns="http://www.w3.org/2000/svg" xmlns:xlink="http://www.w3.org/1999/xlink">
    <!-- Generator: Sketch 51.3 (57544) - http://www.bohemiancoding.com/sketch -->
    <title>ic-technology-buildbox</title>
    <desc>Created with Sketch.</desc>
    <defs></defs>
    <g id="Page-1" stroke="none" stroke-width="1" fill="none" fill-rule="evenodd">
        <g id="ic-technology-buildbox" fill="#252B33" fill-rule="nonzero">
            <path d="M14,0 L0,7.11660214 L0,24.8833979 L0.859809067,25.3220067 L14,32 L28,24.8833979 L28,7.11660214 L14,0 Z M14,3.53359065 L16.7465278,4.92972961 L14.0698787,6.28880293 L11.3263889,4.89266397 L14,3.53359065 Z M7.84765629,6.66254806 L10.5911459,8.05559826 L7.77473962,9.48880285 L5.03125,8.09266389 L7.84765629,6.66254806 Z M20.2222222,6.69652493 L22.96875,8.09266389 L20.2951389,9.45173722 L17.5486111,8.05559826 L20.2222222,6.69652493 Z M14.0698787,9.82548234 L16.8133684,11.2216213 L14,12.6517371 L11.2534722,11.2555982 L14.0698787,9.82548234 Z M3.11111111,10.6501928 L6.22222222,12.2316599 L6.22222222,24.5127399 L3.11111111,22.9312728 L3.11111111,10.6501928 Z M24.8888889,10.6501928 L24.8888889,22.9312728 L21.7777778,24.5127399 L21.7777778,12.2316599 L24.8888889,10.6501928 Z M9.33333333,13.8131279 L12.4444444,15.394595 L12.4444444,27.6756742 L9.33333333,26.0942071 L9.33333333,13.8131279 Z M18.6666667,13.8131279 L18.6666667,26.0942071 L15.5555556,27.6756742 L15.5555556,15.394595 L18.6666667,13.8131279 Z" id="Shape-Copy-13"></path>
        </g>
    </g>
</svg>