<?xml version="1.0" encoding="UTF-8"?>
<svg width="22px" height="32px" viewBox="0 0 22 32" version="1.1" xmlns="http://www.w3.org/2000/svg" xmlns:xlink="http://www.w3.org/1999/xlink">
    <!-- Generator: Sketch 51.3 (57544) - http://www.bohemiancoding.com/sketch -->
    <title>ic-technology-apple-watch</title>
    <desc>Created with Sketch.</desc>
    <defs></defs>
    <g id="Page-1" stroke="none" stroke-width="1" fill="none" fill-rule="evenodd">
        <g id="ic-technology-apple-watch" fill="#252B33" fill-rule="nonzero">
            <path d="M19.2158314,5.66899984 C19.179304,5.64716066 16.9283544,4.7931686 16.9283544,4.7931686 L16.2538782,0.611630365 C16.1971327,0.259273747 15.8895478,-1.70530257e-13 15.5283176,-1.70530257e-13 L5.55741943,-1.70530257e-13 C5.19618919,-1.70530257e-13 4.88860434,0.259273747 4.83172405,0.611630365 L4.15724789,4.7931686 C4.15724789,4.7931686 1.90629825,5.64716066 1.86950129,5.66899984 C0.798345791,6.04319565 -1.15463195e-13,6.88054198 -1.15463195e-13,8.01977512 L-1.15463195e-13,24.0064585 C-1.15463195e-13,25.1824454 0.938659478,26.0152641 1.97288323,26.3820026 C1.97706163,26.3837338 1.98110526,26.3861308 1.98541845,26.3878619 L4.15724789,27.2068314 L4.83172405,31.3883696 C4.88860434,31.7405931 5.19618919,32 5.55741943,32 L15.5283176,32 C15.8895478,32 16.1971327,31.7407263 16.254013,31.3883696 L16.9284892,27.2068314 C16.9284892,27.2068314 19.108271,26.3836006 19.1125842,26.3820026 C20.0560961,26.1080807 21.0854675,25.1824454 21.0854675,24.0064585 L21.0854675,19.5964079 L22,19.5964079 L22,16.8444041 L21.0854675,16.8444041 L21.0854675,13.9713527 L22,13.9713527 L22,11.219349 L21.0854675,11.219349 L21.0854675,8.01990828 C21.0854675,6.88054198 20.3031614,6.12908756 19.2158314,5.66899984 Z M18.7153658,22.6676099 C18.7153658,23.4507578 18.0709472,24.0874233 17.2782625,24.0874233 L3.80733979,24.0874233 C3.01465507,24.0874233 2.37023649,23.4507578 2.37023649,22.6676099 L2.37023649,9.3587569 C2.37023649,8.57560903 3.01465507,7.9389435 3.80733979,7.9389435 L17.2781277,7.9389435 C18.0708124,7.9389435 18.7153658,8.57560903 18.7153658,9.3587569 L18.7153658,22.6676099 Z" id="Combined-Shape-Copy-16"></path>
        </g>
    </g>
</svg>