<?xml version="1.0" encoding="UTF-8"?>
<svg width="32px" height="20px" viewBox="0 0 32 20" version="1.1" xmlns="http://www.w3.org/2000/svg" xmlns:xlink="http://www.w3.org/1999/xlink">
    <!-- Generator: Sketch 51.3 (57544) - http://www.bohemiancoding.com/sketch -->
    <title>virtual-reality-headset</title>
    <desc>Created with Sketch.</desc>
    <defs></defs>
    <g id="Page-1" stroke="none" stroke-width="1" fill="none" fill-rule="evenodd">
        <g id="virtual-reality-headset" fill="#252B33" fill-rule="nonzero">
            <path d="M28.0500488,2.84217094e-14 C30.1970215,2.84217094e-14 32,1.73970507 32,3.9598605 L32,16.0401395 C32,18.2514838 30.2050781,20 28.0500488,20 L22.2709961,20 C21.2167969,20 20.2241211,19.5888148 19.4758301,18.8418283 L17.4672851,16.8284892 C17.0808106,16.4388423 16.5471191,16.2173407 16,16.2173407 C15.4528809,16.2173407 14.9191894,16.4388423 14.5358887,16.8253075 L12.5261231,18.840115 C11.7758789,19.5888148 10.7832031,20 9.72900388,20 L3.94995119,20 C1.8029785,20 5.68434189e-14,18.2602949 5.68434189e-14,16.0401395 L5.68434189e-14,3.9598605 C5.68434189e-14,1.74851618 1.79492188,2.84217094e-14 3.94995119,2.84217094e-14 L28.0500488,2.84217094e-14 Z M8.97070313,6.04001716 C6.79272463,6.04001716 5.02075194,7.8166799 5.02075194,10.0001223 C5.02075194,12.1835648 6.79272463,13.9599828 8.97070313,13.9599828 C11.1489258,13.9599828 12.9208984,12.1835648 12.9208984,10.0001223 C12.9208984,7.8166799 11.1489258,6.04001716 8.97070313,6.04001716 Z M23.0292969,6.04001716 C20.8510743,6.04001716 19.0791016,7.8166799 19.0791016,10.0001223 C19.0791016,12.1835648 20.8510743,13.9599828 23.0292969,13.9599828 C25.2072754,13.9599828 26.9792481,12.1835648 26.9792481,10.0001223 C26.9792481,7.8166799 25.2072754,6.04001716 23.0292969,6.04001716 Z M23.0292969,7.91972101 C24.1733399,7.91972101 25.1042481,8.85296458 25.1042481,10.0001223 C25.1042481,11.1470354 24.1733399,12.080279 23.0292969,12.080279 C21.8850098,12.080279 20.9541016,11.1470354 20.9541016,10.0001223 C20.9541016,8.85296458 21.8850098,7.91972101 23.0292969,7.91972101 Z M8.97070312,7.91972101 C10.1149902,7.91972101 11.0458984,8.85296458 11.0458984,10.0001223 C11.0458984,11.1470354 10.1149902,12.080279 8.97070312,12.080279 C7.82666012,12.080279 6.89575194,11.1470354 6.89575194,10.0001223 C6.89575194,8.85296458 7.82666012,7.91972101 8.97070312,7.91972101 Z" id="Combined-Shape-Copy-17"></path>
        </g>
    </g>
</svg>